<?xml version="1.0" standalone="no"?>
<!DOCTYPE svg PUBLIC "-//W3C//DTD SVG 20010904//EN"
 "http://www.w3.org/TR/2001/REC-SVG-20010904/DTD/svg10.dtd">
<svg version="1.0" xmlns="http://www.w3.org/2000/svg"
 width="1280.000000pt" height="1280.000000pt" viewBox="0 0 1280.000000 1280.000000"
 preserveAspectRatio="xMidYMid meet">
<metadata>
Created by potrace 1.15, written by Peter Selinger 2001-2017
</metadata>
<g transform="translate(0.000000,1280.000000) scale(0.100000,-0.100000)"
fill="#000000" stroke="none">
<path d="M8115 12772 c-171 -59 -296 -143 -447 -301 -199 -206 -338 -475 -408
-786 -33 -147 -34 -149 -76 -142 -24 4 -53 -1 -85 -14 l-50 -19 -24 26 c-14
15 -25 31 -25 35 0 18 -62 8 -125 -21 -36 -16 -69 -30 -73 -30 -14 0 -58 -54
-71 -87 -8 -18 -22 -34 -36 -37 -12 -3 -123 -10 -246 -16 -751 -34 -1191 -64
-1494 -100 -177 -22 -278 3 -410 100 -85 63 -106 63 -153 0 -41 -54 -75 -71
-98 -48 -9 8 -26 44 -38 79 -69 195 -131 314 -252 474 -204 273 -414 423 -687
492 -92 24 -120 26 -292 26 -316 0 -590 -47 -930 -158 -200 -65 -343 -150
-467 -277 -181 -184 -304 -456 -370 -813 -21 -117 -16 -400 10 -526 48 -232
143 -461 278 -664 67 -103 218 -264 314 -336 128 -97 335 -186 510 -220 98
-19 295 -15 445 10 72 12 198 31 280 42 390 52 582 118 762 262 46 37 89 65
94 62 5 -4 9 -16 9 -28 0 -32 46 -175 105 -326 29 -75 56 -146 59 -158 4 -12
27 -51 50 -85 l43 -63 6 -115 c5 -116 13 -155 67 -330 16 -52 39 -133 50 -180
58 -236 99 -340 182 -463 l40 -59 -4 -176 c-4 -170 -6 -181 -38 -272 -29 -85
-33 -108 -36 -220 -1 -74 -9 -149 -18 -185 -29 -106 -46 -251 -46 -382 0 -211
35 -360 136 -581 13 -29 24 -54 24 -56 0 -3 16 -39 36 -83 108 -236 155 -321
251 -456 34 -49 86 -136 114 -195 46 -94 63 -117 139 -192 48 -47 93 -96 100
-110 7 -13 17 -56 22 -95 4 -38 11 -86 14 -107 5 -31 2 -38 -18 -51 -28 -18
-134 -37 -209 -37 -51 -1 -208 -20 -274 -35 -218 -47 -460 -141 -630 -245 -34
-20 -68 -39 -75 -42 -39 -15 -331 -240 -375 -287 -9 -11 -20 -35 -24 -52 -6
-28 -12 -34 -56 -46 -101 -28 -199 -79 -241 -125 -57 -63 -66 -97 -69 -253 -1
-77 -7 -286 -14 -465 -13 -332 -9 -708 9 -848 13 -92 19 -124 76 -359 65 -269
90 -468 67 -551 -5 -21 -10 -23 -41 -17 -32 6 -39 3 -67 -31 -30 -36 -33 -37
-54 -22 -13 9 -39 40 -58 70 -68 102 -124 144 -139 103 -10 -24 43 -102 91
-135 25 -17 53 -42 62 -56 16 -25 16 -26 -65 -106 -45 -44 -95 -104 -112 -133
-34 -60 -35 -65 -16 -65 13 0 40 29 108 113 14 18 39 39 55 47 15 8 40 22 55
32 18 13 29 15 33 7 10 -15 -208 -229 -233 -229 -30 0 -52 -32 -52 -76 0 -27
-9 -55 -29 -85 -45 -71 -73 -89 -188 -119 -56 -14 -159 -93 -183 -141 -30 -57
-27 -120 7 -154 l28 -28 305 7 c168 3 427 10 575 15 149 5 373 13 498 17 215
7 229 8 243 28 19 28 18 75 -5 138 -10 29 -24 98 -30 154 -12 107 -32 178
-101 364 -46 126 -70 160 -110 160 -15 0 -35 9 -46 21 -18 20 -19 39 -19 278
0 330 23 489 105 711 48 133 63 233 64 425 1 187 -11 260 -66 413 -18 49 -27
87 -22 92 10 10 126 38 214 51 38 6 76 4 125 -6 239 -49 436 -77 546 -77 117
0 154 7 339 62 36 11 178 52 315 91 322 91 499 150 614 203 54 25 92 14 181
-54 115 -88 200 -174 237 -240 17 -30 47 -102 66 -160 129 -385 294 -671 535
-922 116 -120 198 -183 374 -287 136 -79 141 -81 320 -125 246 -61 378 -80
494 -72 84 6 97 5 154 -18 81 -33 175 -52 325 -66 65 -6 149 -15 185 -20 36
-5 148 -12 250 -15 226 -8 346 -30 404 -76 27 -21 53 -86 40 -99 -10 -8 -162
-30 -213 -30 -36 0 -107 -35 -115 -57 -7 -18 2 -40 20 -47 8 -3 34 1 57 9 23
8 53 15 67 15 15 0 30 4 35 9 16 14 72 23 79 12 3 -5 -5 -18 -19 -29 -61 -48
-138 -173 -164 -267 -17 -61 9 -37 64 61 68 122 200 250 235 229 13 -8 13
-107 -1 -181 -6 -32 -23 -81 -39 -109 -23 -42 -26 -55 -18 -79 19 -52 -25 -84
-169 -127 -74 -22 -123 -100 -109 -173 14 -68 3 -66 376 -66 315 0 341 1 400
21 92 30 137 65 239 188 133 160 174 195 378 325 l33 21 0 129 c0 145 -19 222
-75 308 -45 69 -300 326 -331 334 -15 4 -49 2 -76 -5 -99 -22 -120 -18 -393
76 -347 120 -542 207 -735 330 -121 77 -174 103 -284 142 -162 57 -305 72
-563 57 -134 -8 -143 -8 -186 13 -94 45 -136 113 -227 367 -142 393 -233 581
-405 834 -100 148 -124 213 -199 547 -29 129 -80 270 -143 398 -98 197 -176
325 -250 411 -47 56 -89 116 -109 162 -19 39 -34 74 -34 77 0 2 -27 61 -60
131 -33 69 -60 128 -60 130 0 2 -13 32 -28 66 -57 126 -98 249 -121 363 -7 33
-23 94 -36 136 -24 76 -55 252 -55 318 -1 20 -9 76 -19 125 l-18 90 24 60 c32
79 53 199 54 316 0 52 4 142 8 200 6 97 10 109 40 153 36 52 59 106 91 212 11
39 29 88 39 110 55 119 72 227 57 360 -14 126 -12 221 7 345 23 152 22 301 -3
414 -40 180 -23 338 60 556 96 255 206 621 240 800 39 209 61 304 92 395 29
89 75 181 85 172 3 -3 22 -57 43 -120 59 -176 131 -312 251 -472 177 -238 397
-385 670 -449 147 -34 618 -60 959 -54 213 4 244 7 332 31 191 51 352 144 487
280 98 99 143 159 225 297 85 144 139 258 182 386 38 113 42 125 67 259 70
363 13 791 -153 1142 -148 313 -421 583 -686 679 l-65 24 -687 0 -687 -1 -80
-27z m-1447 -1580 c54 -27 78 -42 83 -54 30 -60 32 -68 22 -80 -13 -16 -21
-65 -33 -203 -13 -147 -20 -198 -31 -209 -5 -6 -9 -20 -9 -33 0 -13 -4 -31 -9
-41 -5 -9 -14 -30 -21 -47 -28 -68 -36 -82 -62 -122 -15 -23 -28 -44 -28 -48
0 -4 -13 -25 -28 -48 -26 -40 -65 -117 -82 -162 -4 -11 -17 -40 -29 -63 -11
-24 -21 -52 -21 -62 0 -11 -4 -22 -10 -25 -5 -3 -10 -17 -10 -30 0 -13 -4 -27
-10 -30 -5 -3 -10 -17 -10 -30 0 -13 -4 -27 -10 -30 -5 -3 -10 -17 -10 -30 0
-13 -4 -27 -10 -30 -5 -3 -10 -15 -10 -26 0 -10 -4 -27 -9 -37 -5 -9 -14 -37
-21 -62 -7 -25 -16 -53 -21 -62 -5 -10 -9 -27 -9 -37 0 -11 -4 -23 -10 -26 -5
-3 -10 -17 -10 -30 0 -13 -4 -27 -10 -30 -5 -3 -10 -15 -10 -26 0 -10 -4 -27
-9 -37 -14 -28 -73 -155 -83 -182 -6 -14 -14 -33 -19 -42 -5 -10 -9 -27 -9
-37 0 -11 -4 -23 -10 -26 -5 -3 -10 -19 -10 -34 0 -15 -4 -31 -9 -37 -5 -5
-12 -29 -15 -54 -3 -25 -10 -72 -16 -105 -6 -33 -14 -82 -16 -110 -3 -27 -10
-54 -15 -59 -5 -6 -9 -25 -9 -43 0 -18 -9 -48 -19 -67 -14 -25 -19 -51 -18
-97 1 -45 -2 -64 -12 -67 -15 -5 -71 -62 -71 -72 0 -14 -53 -42 -77 -42 -13 0
-34 9 -46 20 -12 11 -33 22 -46 24 -31 4 -60 86 -43 121 6 12 13 51 15 87 3
36 10 83 15 105 6 22 14 54 17 70 4 17 10 39 15 50 38 89 25 420 -20 530 -31
76 -48 104 -85 144 -25 28 -45 60 -49 81 -24 125 -33 146 -67 161 -26 10 -39
8 -97 -15 -81 -31 -92 -32 -92 -7 0 23 -57 111 -71 111 -5 0 -9 -4 -9 -8 0
-17 -72 -92 -89 -92 -33 0 -51 24 -58 77 -7 62 -22 80 -52 61 -18 -11 -23 -10
-36 7 -9 11 -20 30 -25 43 -21 49 -87 8 -75 -46 7 -35 -2 -44 -51 -48 -18 -2
-55 -10 -81 -19 -75 -25 -101 -15 -149 58 -46 71 -164 307 -164 328 0 8 -4 19
-8 24 -5 6 -14 30 -21 55 -7 25 -17 54 -21 65 -8 20 -12 35 -30 145 -15 87
-23 206 -17 232 7 25 39 68 51 68 3 0 36 18 72 40 36 22 68 40 71 40 2 0 24
14 48 30 24 17 47 30 51 30 21 0 44 36 44 69 1 55 16 67 95 75 39 4 111 11
160 16 382 40 734 63 1163 78 150 5 276 12 279 16 10 9 231 7 251 -2z"/>
</g>
</svg>
